<svg width="18" height="23" viewBox="0 0 18 23" fill="none" xmlns="http://www.w3.org/2000/svg">
<path d="M10.577 3.18613C11.358 3.96718 11.358 5.23352 10.577 6.01457C9.79592 6.79562 8.52958 6.79562 7.74854 6.01457C6.96749 5.23352 6.96749 3.96718 7.74854 3.18613C8.52955 2.40508 9.79589 2.40508 10.577 3.18613Z" fill="#454545"/>
<path d="M10.577 10.1861C11.358 10.9672 11.358 12.2335 10.577 13.0146C9.79592 13.7956 8.52958 13.7956 7.74854 13.0146C6.96749 12.2335 6.96749 10.9672 7.74854 10.1861C8.52955 9.40508 9.79589 9.40508 10.577 10.1861Z" fill="#454545"/>
<path d="M10.577 17.1861C11.358 17.9672 11.358 19.2335 10.577 20.0146C9.79592 20.7956 8.52958 20.7956 7.74854 20.0146C6.96749 19.2335 6.96749 17.9672 7.74854 17.1861C8.52955 16.4051 9.79589 16.4051 10.577 17.1861Z" fill="#454545"/>
</svg>
